<svg xmlns="http://www.w3.org/2000/svg" viewBox="0 0 16 16" shape-rendering="crispEdges">
  <rect width="16" height="16" fill="#1b120c"/>
  <g fill="#ff9e42">
    <rect x="2" y="1" width="1" height="3"/><rect x="13" y="1" width="1" height="3"/>
    <rect x="3" y="2" width="1" height="2"/><rect x="12" y="2" width="1" height="2"/>
    <rect x="2" y="4" width="12" height="8"/>
    <rect x="3" y="12" width="10" height="1"/><rect x="4" y="13" width="8" height="1"/>
  </g>
  <g fill="#f98a9b">
    <rect x="3" y="3" width="1" height="1"/><rect x="12" y="3" width="1" height="1"/>
    <rect x="7" y="9" width="2" height="1"/>
  </g>
  <g fill="#e07b28">
    <rect x="6" y="4" width="1" height="2"/><rect x="8" y="4" width="1" height="2"/><rect x="10" y="4" width="1" height="2"/>
  </g>
  <g fill="#7fdca6">
    <rect x="3" y="7" width="2" height="2"/><rect x="11" y="7" width="2" height="2"/>
  </g>
  <rect x="6" y="10" width="4" height="2" fill="#fff3e0"/>
</svg>
